<svg width="190" height="32" viewBox="0 0 190 32" fill="none" xmlns="http://www.w3.org/2000/svg">
<g clip-path="url(#clip0_1438_546)">
<path d="M17.6151 6.35547C18.5008 6.35547 19.3126 6.47768 20.0261 6.69766C20.7395 6.91764 21.3792 7.21095 21.9204 7.57759C22.4617 7.94422 22.9291 8.38419 23.3227 8.87303C23.7164 9.36188 24.0116 9.87517 24.2576 10.4129C24.5036 10.9506 24.6758 11.4884 24.7988 12.0261C24.9218 12.5638 24.9711 13.1016 24.9711 13.566V30.92H20.4443V13.5904C20.4443 12.7349 20.1983 12.0505 19.6817 11.5861C19.165 11.1217 18.4762 10.8773 17.6151 10.8773C17.1969 10.8773 16.8032 10.9506 16.4588 11.0728C16.1144 11.1951 15.8192 11.3906 15.5485 11.6106C15.3025 11.855 15.1057 12.1239 14.9581 12.4661C14.8105 12.8083 14.7613 13.1749 14.7613 13.5904V23.9295C14.7613 24.6628 14.6383 25.445 14.3677 26.276C14.097 27.107 13.6788 27.8892 13.113 28.6225C12.5225 29.3313 11.7599 29.9424 10.825 30.4312C9.89013 30.9201 8.73384 31.14 7.38074 31.14C6.02764 31.14 4.87135 30.8956 3.93648 30.4312C3.00161 29.9424 2.23895 29.3557 1.64851 28.6225C1.05807 27.8892 0.639836 27.1315 0.369215 26.276C0.0985951 25.445 -0.0244141 24.6384 -0.0244141 23.9295V8.62861H4.52693V23.954C4.52693 24.8095 4.79755 25.4694 5.31418 25.9583C5.83082 26.4471 6.51967 26.6671 7.38074 26.6671C8.2418 26.6671 8.93065 26.4227 9.44729 25.9583C9.96393 25.4694 10.21 24.8095 10.21 23.954V13.5904C10.21 13.0771 10.2838 12.5638 10.4068 12.0261C10.5298 11.4884 10.7266 10.9506 10.9726 10.4129C11.2186 9.87517 11.5384 9.36188 11.9321 8.87303C12.3257 8.38419 12.7931 7.94422 13.3344 7.57759C13.8756 7.21095 14.5153 6.8932 15.2041 6.67322C15.893 6.45324 16.7048 6.35547 17.6151 6.35547Z" fill="#474747"/>
<path d="M28.8086 16.6702C28.8086 10.4129 33.0647 6.33105 39.166 6.33105C45.2672 6.33105 49.671 10.5596 49.671 16.6946C49.671 23.3185 44.7014 26.6671 39.9778 26.6671C37.1732 26.6671 34.8606 25.4939 33.4829 23.3429V30.9201H28.8086V16.6702ZM44.9474 16.5235C44.9474 13.126 42.6348 10.6818 39.1906 10.6818C35.7463 10.6818 33.4829 13.1016 33.4829 16.5235C33.4829 19.9455 35.7709 22.3408 39.1906 22.3408C42.6102 22.3408 44.9474 19.921 44.9474 16.5235Z" fill="#474747"/>
<path d="M51.959 16.4991C51.959 10.6329 56.2889 6.33105 62.4394 6.33105C68.5898 6.33105 72.8459 10.6329 72.8459 16.4991V18.1367H56.9039C57.5436 20.9476 59.7086 22.4386 62.464 22.4386C64.5551 22.4386 66.0804 21.852 67.0645 20.6054H72.0587C70.6072 24.2718 67.0645 26.6671 62.4394 26.6671C56.2889 26.6671 51.959 22.3652 51.959 16.4991ZM67.8764 14.4215C67.1383 11.8306 64.998 10.5596 62.4394 10.5596C59.8808 10.5596 57.765 11.8795 57.0024 14.4215H67.8764Z" fill="#474747"/>
<path d="M75.084 16.4991C75.084 10.6329 79.4139 6.33105 85.5644 6.33105C90.8538 6.33105 94.6916 9.50856 95.6511 14.0793H90.9276C90.0911 12.0017 88.123 10.6818 85.5644 10.6818C82.1447 10.6818 79.8075 13.1016 79.8075 16.5235C79.8075 19.9455 82.1201 22.3408 85.5644 22.3408C88.123 22.3408 90.0911 21.0209 90.9276 18.9433H95.6511C94.7163 23.514 90.8538 26.6915 85.5644 26.6915C79.4139 26.6915 75.084 22.3897 75.084 16.5235V16.4991Z" fill="#474747"/>
<path d="M98.7021 18.7473V0H103.377V6.84386H113.414V11.0724H103.377V18.7473C103.377 21.3382 104.705 22.3403 106.649 22.3403C108.592 22.3403 109.921 21.3626 109.921 18.7473V18.234H114.595V18.7473C114.595 24.1002 111.372 26.6911 106.649 26.6911C101.925 26.6911 98.7021 24.1002 98.7021 18.7473Z" fill="#474747"/>
<path d="M117.597 14.9348C117.597 9.11748 121.066 6.33105 126.134 6.33105C131.201 6.33105 134.646 9.11748 134.646 15.0081V15.1303H129.996V14.9348C129.996 11.8061 128.421 10.6574 126.134 10.6574C123.846 10.6574 122.271 11.7817 122.271 14.9348V26.1538H117.597V14.9348Z" fill="#474747"/>
<path d="M137.18 16.8897V6.84387H141.854V16.8897C141.854 20.556 143.823 22.3403 146.775 22.3403C149.727 22.3403 151.695 20.5805 151.695 16.8897V6.84387H156.369V16.8897C156.369 23.3425 152.507 26.6666 146.75 26.6666C140.993 26.6666 137.131 23.3914 137.131 16.8897H137.18Z" fill="#474747"/>
<path d="M160.231 15.1303C160.231 9.0686 163.774 6.33105 168.375 6.33105C171.278 6.33105 173.689 7.55317 175.116 9.80187C176.493 7.52873 178.904 6.33105 181.856 6.33105C186.457 6.33105 190 9.0686 190 15.1303V26.1538H185.325V15.1303C185.325 11.9528 183.677 10.6574 181.389 10.6574C179.101 10.6574 177.502 11.9772 177.502 15.1303V26.1538H172.828V15.1303C172.828 12.0017 171.13 10.6574 168.891 10.6574C166.653 10.6574 164.955 11.9528 164.955 15.1303V26.1538H160.281V15.1303H160.231Z" fill="#474747"/>
</g>
<defs>
<clipPath id="clip0_1438_546">
<rect width="190" height="31.164" fill="white"/>
</clipPath>
</defs>
</svg>
